<svg width="24" height="24" viewBox="0 0 24 24" fill="none" xmlns="http://www.w3.org/2000/svg">
    <path d="M6.60089 4.80065C6.24483 4.80065 5.89678 4.90623 5.60073 5.10404C5.30468 5.30186 5.07394 5.58301 4.93768 5.91197C4.80143 6.24092 4.76578 6.60288 4.83524 6.95209C4.9047 7.30131 5.07616 7.62208 5.32793 7.87385C5.57969 8.12561 5.90047 8.29707 6.24968 8.36653C6.59889 8.43599 6.96086 8.40034 7.28981 8.26409C7.61876 8.12783 7.89992 7.89709 8.09773 7.60104C8.29554 7.305 8.40112 6.95694 8.40112 6.60089C8.40112 6.12343 8.21146 5.66554 7.87385 5.32793C7.53624 4.99032 7.07834 4.80065 6.60089 4.80065ZM22.947 10.4534L12.8537 0.348066C12.7416 0.236833 12.6086 0.148832 12.4623 0.0891063C12.3161 0.0293809 12.1595 -0.000893132 12.0016 2.00598e-05H1.20018C0.881876 2.00598e-05 0.576611 0.126465 0.351538 0.351538C0.126465 0.576611 2.00598e-05 0.881876 2.00598e-05 1.20018V12.0016C-0.000893132 12.1595 0.0293809 12.3161 0.0891063 12.4623C0.148832 12.6086 0.236833 12.7416 0.348066 12.8537L10.4534 22.947C11.1285 23.6213 12.0436 24 12.9977 24C13.9519 24 14.867 23.6213 15.5421 22.947L22.947 15.6021C23.6213 14.927 24 14.0119 24 13.0577C24 12.1036 23.6213 11.1885 22.947 10.5134V10.4534ZM21.2548 13.8378L13.8378 21.2428C13.613 21.4663 13.3088 21.5918 12.9917 21.5918C12.6747 21.5918 12.3705 21.4663 12.1456 21.2428L2.40033 11.5095V2.40033H11.5095L21.2548 12.1456C21.366 12.2578 21.454 12.3908 21.5138 12.537C21.5735 12.6832 21.6038 12.8398 21.6029 12.9977C21.6015 13.3126 21.4765 13.6143 21.2548 13.8378Z" fill="currentcolor"/>
</svg>
