<svg width="16" height="16" viewBox="0 0 16 16" fill="none" xmlns="http://www.w3.org/2000/svg">
<path d="M2.75 12.5022H5.93C6.0287 12.5027 6.12655 12.4838 6.21793 12.4465C6.30931 12.4092 6.39242 12.3542 6.4625 12.2847L11.6525 7.08715L13.7825 5.00215C13.8528 4.93243 13.9086 4.84948 13.9467 4.75808C13.9847 4.66669 14.0043 4.56866 14.0043 4.46965C14.0043 4.37064 13.9847 4.27261 13.9467 4.18122C13.9086 4.08982 13.8528 4.00687 13.7825 3.93715L10.6025 0.719651C10.5328 0.649355 10.4498 0.593559 10.3584 0.555483C10.267 0.517406 10.169 0.497803 10.07 0.497803C9.97099 0.497803 9.87296 0.517406 9.78157 0.555483C9.69017 0.593559 9.60722 0.649355 9.5375 0.719651L7.4225 2.84215L2.2175 8.03965C2.14799 8.10973 2.093 8.19284 2.05567 8.28422C2.01835 8.3756 1.99943 8.47345 2 8.57215V11.7522C2 11.9511 2.07902 12.1418 2.21967 12.2825C2.36032 12.4231 2.55109 12.5022 2.75 12.5022ZM10.07 2.30965L12.1925 4.43215L11.1275 5.49715L9.005 3.37465L10.07 2.30965ZM3.5 8.87965L7.9475 4.43215L10.07 6.55465L5.6225 11.0022H3.5V8.87965ZM14.75 14.0022H1.25C1.05109 14.0022 0.860322 14.0812 0.71967 14.2218C0.579018 14.3625 0.5 14.5532 0.5 14.7522C0.5 14.9511 0.579018 15.1418 0.71967 15.2825C0.860322 15.4231 1.05109 15.5022 1.25 15.5022H14.75C14.9489 15.5022 15.1397 15.4231 15.2803 15.2825C15.421 15.1418 15.5 14.9511 15.5 14.7522C15.5 14.5532 15.421 14.3625 15.2803 14.2218C15.1397 14.0812 14.9489 14.0022 14.75 14.0022Z" fill="#C1C3C8"/>
</svg>
