<svg width="16" height="12" viewBox="0 0 16 12" fill="none" xmlns="http://www.w3.org/2000/svg">
<path d="M15.4374 5.70009C13.9229 2.18382 11.0739 0.0020752 8 0.0020752C4.92607 0.0020752 2.07706 2.18382 0.562592 5.70009C0.521309 5.79468 0.5 5.89678 0.5 5.99999C0.5 6.10319 0.521309 6.20529 0.562592 6.29988C2.07706 9.81616 4.92607 11.9979 8 11.9979C11.0739 11.9979 13.9229 9.81616 15.4374 6.29988C15.4787 6.20529 15.5 6.10319 15.5 5.99999C15.5 5.89678 15.4787 5.79468 15.4374 5.70009ZM8 10.4984C5.62333 10.4984 3.37411 8.78152 2.07706 5.99999C3.37411 3.21845 5.62333 1.50155 8 1.50155C10.3767 1.50155 12.6259 3.21845 13.9229 5.99999C12.6259 8.78152 10.3767 10.4984 8 10.4984ZM8 3.00103C7.40686 3.00103 6.82705 3.17692 6.33387 3.50645C5.84069 3.83597 5.45631 4.30435 5.22933 4.85233C5.00234 5.40032 4.94295 6.00331 5.05867 6.58505C5.17438 7.16679 5.46001 7.70116 5.87942 8.12057C6.29883 8.53998 6.83319 8.8256 7.41493 8.94132C7.99667 9.05703 8.59966 8.99764 9.14765 8.77066C9.69564 8.54367 10.164 8.15929 10.4935 7.66611C10.8231 7.17294 10.999 6.59312 10.999 5.99999C10.999 5.20461 10.683 4.44182 10.1206 3.8794C9.55817 3.31699 8.79537 3.00103 8 3.00103ZM8 7.49946C7.70343 7.49946 7.41352 7.41152 7.16694 7.24676C6.92035 7.08199 6.72816 6.8478 6.61466 6.57381C6.50117 6.29982 6.47148 5.99832 6.52933 5.70745C6.58719 5.41658 6.73 5.1494 6.93971 4.93969C7.14942 4.72999 7.4166 4.58718 7.70747 4.52932C7.99834 4.47146 8.29983 4.50116 8.57382 4.61465C8.84782 4.72814 9.08201 4.92033 9.24677 5.16692C9.41153 5.41351 9.49948 5.70342 9.49948 5.99999C9.49948 6.39767 9.3415 6.77907 9.06029 7.06028C8.77908 7.34148 8.39769 7.49946 8 7.49946Z" fill="#C1C3C8"/>
</svg>
