<svg width="24" height="24" viewBox="0 0 22 22" fill="none" xmlns="http://www.w3.org/2000/svg">
<path d="M20.4288 8.38063C20.5664 8.38067 20.7026 8.3536 20.8297 8.30096C20.9569 8.24832 21.0724 8.17116 21.1697 8.07387C21.267 7.97658 21.3441 7.86107 21.3968 7.73395C21.4494 7.60683 21.4765 7.47058 21.4764 7.33299V4.19006C21.4765 3.97024 21.4074 3.75597 21.2788 3.57766C21.1503 3.39934 20.9689 3.26603 20.7603 3.19664L11.3315 0.053712C11.1163 -0.017904 10.8837 -0.017904 10.6685 0.053712L1.23972 3.19664C1.03114 3.26603 0.8497 3.39934 0.721151 3.57766C0.592603 3.75597 0.523469 3.97024 0.52356 4.19006V7.33299C0.523524 7.47058 0.550598 7.60683 0.603234 7.73395C0.65587 7.86107 0.733038 7.97658 0.830328 8.07387C0.927617 8.17116 1.04312 8.24832 1.17024 8.30096C1.29737 8.3536 1.43361 8.38067 1.5712 8.38063H2.61885V15.9072C2.00779 16.1224 1.47835 16.5215 1.10319 17.0497C0.728028 17.5779 0.525553 18.2092 0.52356 18.8571V20.9524C0.523524 21.0899 0.550598 21.2262 0.603234 21.3533C0.65587 21.4804 0.733038 21.5959 0.830328 21.6932C0.927617 21.7905 1.04312 21.8677 1.17024 21.9203C1.29737 21.973 1.43361 22 1.5712 22H20.4288C20.5664 22 20.7026 21.973 20.8297 21.9203C20.9569 21.8677 21.0724 21.7905 21.1697 21.6932C21.267 21.5959 21.3441 21.4804 21.3968 21.3533C21.4494 21.2262 21.4765 21.0899 21.4764 20.9524V18.8571C21.4744 18.2092 21.272 17.5779 20.8968 17.0497C20.5216 16.5215 19.9922 16.1224 19.3811 15.9072V8.38063H20.4288ZM19.3811 19.9047H2.61885V18.8571C2.61912 18.5793 2.72959 18.313 2.926 18.1166C3.12241 17.9202 3.38872 17.8097 3.66649 17.8094H18.3335C18.6113 17.8097 18.8776 17.9202 19.074 18.1166C19.2704 18.313 19.3809 18.5793 19.3811 18.8571V19.9047ZM4.71413 15.7141V8.38063H6.80942V15.7141H4.71413ZM8.90471 15.7141V8.38063H13.0953V15.7141H8.90471ZM15.1906 15.7141V8.38063H17.2859V15.7141H15.1906ZM2.61885 6.28535V4.9451L11 2.15103L19.3811 4.9451V6.28535H2.61885Z" fill="currentcolor"/>
</svg>
