<svg width="12" height="16" viewBox="0 0 12 16" fill="none" xmlns="http://www.w3.org/2000/svg">
<path fill-rule="evenodd" clip-rule="evenodd" d="M8.8125 0.497803V1.463H11.625V3.31441H0.375V1.463H3.1875V0.497803H8.8125ZM0.375 13.4138C0.375 14.5662 1.3125 15.5022 2.46698 15.5022H9.53027C10.6848 15.5022 11.6223 14.5662 11.6223 13.4138V4.27083H0.375V13.4138ZM2.25 6.14271H9.75V12.9342C9.75 13.3173 9.43689 13.6303 9.05237 13.6303H2.94763C2.56311 13.6303 2.25 13.3173 2.25 12.9342V6.14271ZM6.9375 7.04941H8.8125V12.6651H6.9375V7.04941ZM5.0625 7.04941H3.1875V12.6651H5.0625V7.04941Z" fill="#C1C3C8"/>
</svg>
